<svg class="nc-icon glyph" xmlns="http://www.w3.org/2000/svg" xmlns:xlink="http://www.w3.org/1999/xlink" x="0px" y="0px" width="48px" height="48px" viewBox="0 0 48 48"><g>
<path fill="#444444" d="M37,21L35,9.8C34.9,9.3,34.5,9,34,9h-8c-0.6,0-1,0.4-1,1s0.4,1,1,1h7.2l1.1,6H14c-0.4,0-0.8,0.3-1,0.7
	l-1,3.3C11.7,21,11.4,21,11,21C5.5,21,1,25.5,1,31s4.5,10,10,10s10-4.5,10-10c0-4.5-2.9-8.2-7-9.5l0.7-2.5h19.9l0.4,2.2
	c-4.6,0.9-8,5-8,9.8c0,5.5,4.5,10,10,10s10-4.5,10-10C47,25.5,42.5,21,37,21z M19,31c0,4.4-3.6,8-8,8s-8-3.6-8-8s3.6-8,8-8
	c0.2,0,0.3,0,0.5,0L9,31.7c-0.2,0.5,0.2,1.1,0.7,1.2c0.1,0,0.2,0,0.3,0c0.4,0,0.8-0.3,1-0.7l2.5-8.9C16.7,24.5,19,27.5,19,31z
	 M37,39c-4.4,0-8-3.6-8-8c0-3.9,2.7-7.1,6.4-7.8l1.6,9c0.1,0.5,0.5,0.8,1,0.8c0.1,0,0.1,0,0.2,0c0.5-0.1,0.9-0.6,0.8-1.2L37.4,23
	c4.2,0.2,7.6,3.7,7.6,8C45,35.4,41.4,39,37,39z"></path>
<path data-color="color-2" fill="#444444" d="M10,13h8c0.6,0,1-0.4,1-1s-0.4-1-1-1h-8c-0.6,0-1,0.4-1,1S9.4,13,10,13z"></path>
</g></svg>